<?xml version="1.0" encoding="utf-8" standalone="no"?>
<!DOCTYPE svg PUBLIC "-//W3C//DTD SVG 1.1//EN"
  "http://www.w3.org/Graphics/SVG/1.1/DTD/svg11.dtd">
<svg xmlns:xlink="http://www.w3.org/1999/xlink" width="892.8pt" height="564.824524pt" viewBox="0 0 892.8 564.824524" xmlns="http://www.w3.org/2000/svg" version="1.1">
 <metadata>
  <rdf:RDF xmlns:dc="http://purl.org/dc/elements/1.1/" xmlns:cc="http://creativecommons.org/ns#" xmlns:rdf="http://www.w3.org/1999/02/22-rdf-syntax-ns#">
   <cc:Work>
    <dc:type rdf:resource="http://purl.org/dc/dcmitype/StillImage"/>
    <dc:date>2022-01-22T11:42:51.609317</dc:date>
    <dc:format>image/svg+xml</dc:format>
    <dc:creator>
     <cc:Agent>
      <dc:title>Matplotlib v3.5.0, https://matplotlib.org/</dc:title>
     </cc:Agent>
    </dc:creator>
   </cc:Work>
  </rdf:RDF>
 </metadata>
 <defs>
  <style type="text/css">*{stroke-linejoin: round; stroke-linecap: butt}</style>
 </defs>
 <g id="figure_1">
  <g id="patch_1">
   <path d="M 0 564.824524 
L 892.8 564.824524 
L 892.8 0 
L 0 0 
L 0 564.824524 
z
" style="fill: none"/>
  </g>
  <g id="axes_1">
   <g id="line2d_1">
    <path d="M 40.581818 540.115433 
L 334.225455 540.004351 
L 361.479863 539.738483 
L 375.987725 539.412254 
L 381.456103 539.085966 
L 384.94732 538.66533 
L 387.571995 538.132671 
L 389.715469 537.477062 
L 391.580755 536.675118 
L 393.238708 535.719898 
L 394.75544 534.589774 
L 396.193135 533.237623 
L 397.55423 531.651665 
L 398.89662 529.739599 
L 400.220306 527.455586 
L 401.525289 524.752232 
L 402.838167 521.510137 
L 404.157745 517.647279 
L 405.508578 512.980253 
L 406.862801 507.486223 
L 408.244015 500.943326 
L 409.673966 493.062969 
L 411.148416 483.644143 
L 412.662908 472.48604 
L 414.235622 459.194551 
L 415.882197 443.316537 
L 417.615367 424.361216 
L 419.444512 401.843325 
L 421.435566 374.484057 
L 423.639502 341.02814 
L 426.269304 297.540628 
L 430.454958 223.980102 
L 434.181516 159.999222 
L 436.394987 125.681267 
L 438.180826 101.28223 
L 439.697688 83.468406 
L 441.013293 70.518352 
L 442.160446 61.310571 
L 443.16316 54.956566 
L 444.030782 50.788805 
L 444.773606 48.227949 
L 445.393353 46.81427 
L 445.902773 46.149174 
L 446.31466 45.940673 
L 446.674388 45.999774 
L 447.049439 46.300778 
L 447.489125 46.964212 
L 448.016133 48.199166 
L 448.640763 50.278941 
L 449.367226 53.52731 
L 450.203374 58.347605 
L 451.160749 65.24392 
L 452.244951 74.748993 
L 453.48311 87.663579 
L 454.898757 104.873097 
L 456.545702 127.741013 
L 458.534122 158.624772 
L 461.17662 203.416776 
L 469.179725 341.333036 
L 471.566166 377.385806 
L 473.670202 405.89972 
L 475.596844 429.079993 
L 477.409477 448.272833 
L 479.115168 464.053438 
L 480.748344 477.177536 
L 482.32463 488.11372 
L 483.862254 497.267541 
L 485.356613 504.857297 
L 486.803324 511.09907 
L 488.224276 516.284367 
L 489.616791 520.561793 
L 491.005194 524.131801 
L 492.388219 527.088605 
L 493.764623 529.519839 
L 495.161323 531.54218 
L 496.578318 533.207611 
L 498.04456 534.589774 
L 499.590675 535.739183 
L 501.249083 536.690024 
L 503.054198 537.465944 
L 505.104449 538.101106 
L 507.537215 538.613399 
L 510.566908 539.012607 
L 514.698266 539.315942 
L 521.311227 539.55199 
L 535.834387 539.800695 
L 561.711543 540.021041 
L 601.472879 540.107491 
L 810.183602 540.115433 
L 852.218182 540.115433 
L 852.218182 540.115433 
" clip-path="url(#p8ccfcc2198)" style="fill: none; stroke: #1f77b4; stroke-width: 4; stroke-linecap: square"/>
   </g>
   <g id="line2d_2">
    <path d="M 40.581818 540.115433 
L 272.471654 540.004589 
L 286.880087 539.757887 
L 296.452318 539.380502 
L 303.810279 538.875974 
L 309.949609 538.237727 
L 315.26262 537.466031 
L 320.017552 536.552711 
L 324.328788 535.500239 
L 328.302624 534.304453 
L 332.038408 532.950486 
L 335.586938 531.429079 
L 338.996043 529.725093 
L 342.269666 527.841457 
L 345.492624 525.728116 
L 348.625079 523.408015 
L 351.747351 520.816027 
L 354.857514 517.940082 
L 357.953621 514.771121 
L 361.070924 511.259795 
L 364.241907 507.348404 
L 367.460287 503.022426 
L 370.789652 498.168451 
L 374.218556 492.771769 
L 377.835075 486.656989 
L 381.683208 479.70237 
L 385.859932 471.682384 
L 390.591826 462.099111 
L 396.563612 449.469661 
L 411.148416 418.407409 
L 415.435383 409.933135 
L 419.045566 403.272033 
L 422.234376 397.840391 
L 425.114232 393.360175 
L 427.759279 389.64366 
L 430.212697 386.568388 
L 432.508094 384.037523 
L 434.861921 381.778682 
L 436.471312 380.157193 
L 437.157343 379.132001 
L 437.700375 377.910735 
L 438.203914 376.192826 
L 438.692442 373.662289 
L 439.176794 369.891836 
L 439.676809 364.113336 
L 440.199092 355.27111 
L 440.748257 341.917687 
L 441.344702 321.568414 
L 442.009793 290.64241 
L 442.798195 242.774602 
L 444.177295 142.137728 
L 445.131642 80.939637 
L 445.704305 56.879871 
L 446.104099 47.942798 
L 446.361809 45.969169 
L 446.412729 45.939359 
L 446.460414 46.019546 
L 446.58071 46.685671 
L 446.782556 49.283732 
L 447.078993 56.368914 
L 447.489125 72.120028 
L 448.057372 103.451278 
L 448.984783 168.919409 
L 450.516018 275.29663 
L 451.320316 316.016401 
L 452.013491 340.806756 
L 452.651179 356.270703 
L 453.24915 365.785968 
L 453.819451 371.602569 
L 454.378374 375.193092 
L 454.934034 377.422787 
L 455.520563 378.898642 
L 456.176914 379.962555 
L 457.065578 380.959865 
L 462.490179 386.454384 
L 464.832543 389.368424 
L 467.33402 392.843106 
L 470.03377 396.980987 
L 473.00102 401.947512 
L 476.297719 407.913829 
L 480.043541 415.16728 
L 484.580878 424.462262 
L 491.059032 438.295908 
L 502.027711 461.724899 
L 507.128324 472.053463 
L 511.506358 480.426309 
L 515.466313 487.529838 
L 519.164587 493.717589 
L 522.677521 499.171872 
L 526.057343 504.018251 
L 529.36356 508.374783 
L 532.587306 512.259191 
L 535.758192 515.736872 
L 538.908831 518.866006 
L 542.03523 521.66286 
L 545.173535 524.177294 
L 548.362503 526.449569 
L 551.602136 528.48627 
L 554.934407 530.318043 
L 558.361266 531.948197 
L 561.927988 533.399064 
L 565.682622 534.685911 
L 569.676185 535.818324 
L 573.962949 536.801816 
L 578.647141 537.646998 
L 583.887854 538.362694 
L 589.857111 538.948394 
L 596.94036 539.41163 
L 605.716411 539.752194 
L 617.628745 539.976294 
L 637.024987 540.090383 
L 695.379575 540.115386 
L 852.218182 540.115433 
L 852.218182 540.115433 
" clip-path="url(#p8ccfcc2198)" style="fill: none; stroke: #ff7f0e; stroke-width: 4; stroke-linecap: square"/>
   </g>
   <g id="line2d_3">
    <path d="M 40.581818 540.115433 
L 214.291145 540.004558 
L 232.224379 539.75697 
L 244.199758 539.379287 
L 253.543216 538.86985 
L 261.352496 538.227772 
L 268.194449 537.446241 
L 274.326594 536.525344 
L 279.935738 535.461741 
L 285.196242 534.239055 
L 290.120528 532.86907 
L 294.869246 531.317255 
L 299.447024 529.586187 
L 303.906494 527.660395 
L 308.249897 525.543326 
L 312.572693 523.188575 
L 316.87264 520.593136 
L 321.237649 517.695738 
L 325.660706 514.489615 
L 330.178021 510.939411 
L 334.907236 506.936047 
L 339.912774 502.401316 
L 345.330654 497.185819 
L 351.472739 490.953412 
L 359.162097 482.813839 
L 380.085121 460.490327 
L 386.079195 454.529704 
L 391.311924 449.634206 
L 396.078867 445.473588 
L 400.548306 441.863556 
L 404.783934 438.723369 
L 408.863722 435.971341 
L 412.826538 433.563473 
L 416.700243 431.467964 
L 420.500877 429.663045 
L 424.250494 428.127149 
L 427.967457 426.844448 
L 431.654342 425.807065 
L 435.322584 425.00581 
L 438.96957 424.436113 
L 442.612326 424.091752 
L 445.264127 423.811894 
L 445.373038 423.242996 
L 445.488042 421.077363 
L 445.614179 413.379363 
L 445.760266 387.485868 
L 445.944479 306.363872 
L 446.4 45.938961 
L 446.464441 54.513058 
L 446.596455 118.751405 
L 447.13661 407.393808 
L 447.346919 422.028938 
L 447.535873 423.811894 
L 447.723398 423.97652 
L 448.574906 424.010781 
L 452.206049 424.254874 
L 455.839697 424.722071 
L 459.478179 425.414373 
L 463.126707 426.335466 
L 466.784595 427.488363 
L 470.466686 428.882062 
L 474.198785 430.534002 
L 477.972967 432.449171 
L 481.819249 434.652044 
L 485.760044 437.167798 
L 489.828962 440.032848 
L 494.04234 443.274437 
L 498.479826 446.972906 
L 503.205944 451.205806 
L 508.359112 456.124902 
L 514.232862 462.04902 
L 521.55555 469.769757 
L 544.693567 494.406407 
L 550.69487 500.32672 
L 556.028582 505.281464 
L 560.977145 509.579454 
L 565.682622 513.374844 
L 570.213628 516.746802 
L 574.646504 519.770464 
L 579.018101 522.484475 
L 583.368632 524.924686 
L 587.741467 527.122598 
L 592.183012 529.104469 
L 596.693268 530.872881 
L 601.322384 532.449713 
L 606.174473 533.865055 
L 611.256548 535.112675 
L 616.628411 536.200674 
L 622.406993 537.142423 
L 628.77143 537.949574 
L 635.858493 538.618857 
L 643.985837 539.157235 
L 653.731805 539.57122 
L 666.09485 539.862548 
L 683.818263 540.038808 
L 717.532365 540.109636 
L 852.218182 540.115433 
L 852.218182 540.115433 
" clip-path="url(#p8ccfcc2198)" style="fill: none; stroke: #2ca02c; stroke-width: 4; stroke-linecap: square"/>
   </g>
   <g id="line2d_4">
    <path d="M 40.581818 540.114923 
L 127.122971 540.000862 
L 150.093729 539.750925 
L 165.629311 539.369418 
L 177.849046 538.85356 
L 188.115974 538.202705 
L 197.102423 537.415173 
L 205.241943 536.48203 
L 212.753902 535.399076 
L 219.783206 534.163097 
L 226.466189 532.764083 
L 232.931423 531.183194 
L 239.184217 529.426333 
L 245.344069 527.465735 
L 251.467239 525.284652 
L 257.661828 522.841738 
L 264.02857 520.088846 
L 270.660191 516.975153 
L 277.745099 513.399369 
L 285.758506 509.099397 
L 296.254889 503.195055 
L 315.26262 492.471868 
L 322.720842 488.551276 
L 329.045854 485.472045 
L 334.736985 482.945031 
L 340.037479 480.832936 
L 345.046894 479.074038 
L 349.856314 477.617772 
L 354.587449 476.417154 
L 359.237351 475.466095 
L 363.876273 474.743648 
L 368.566196 474.238712 
L 373.36018 473.947445 
L 378.334635 473.870089 
L 383.58157 474.01329 
L 389.289956 474.395721 
L 395.792626 475.061642 
L 404.052926 476.145902 
L 426.395656 479.196131 
L 433.394579 479.852443 
L 439.73935 480.226134 
L 445.80459 480.361212 
L 446.185279 480.263494 
L 446.210624 478.515453 
L 446.24407 450.74327 
L 446.4 45.933615 
L 446.441406 273.441779 
L 446.490114 202.43848 
L 446.609156 480.161791 
L 446.727382 480.361976 
L 452.742177 480.238771 
L 458.930312 479.888179 
L 465.583924 479.284734 
L 473.292765 478.353659 
L 485.205862 476.655228 
L 496.549779 475.115918 
L 503.510044 474.395721 
L 509.410193 474.004323 
L 514.764882 473.868627 
L 519.784591 473.961086 
L 524.589696 474.269256 
L 529.290173 474.792564 
L 533.939243 475.534641 
L 538.560362 476.497448 
L 543.221025 477.695362 
L 547.996646 479.153945 
L 552.92881 480.895386 
L 558.105598 482.962982 
L 563.623231 485.411153 
L 569.631451 488.325071 
L 576.478246 491.899519 
L 585.071558 496.651256 
L 613.749224 512.715469 
L 621.232904 516.53106 
L 628.064722 519.768648 
L 634.529741 522.589116 
L 640.826771 525.093996 
L 646.999116 527.311051 
L 653.152018 529.286769 
L 659.397864 531.058901 
L 665.796331 532.64143 
L 672.410624 534.045543 
L 679.307588 535.279831 
L 686.620369 536.359195 
L 694.426787 537.284348 
L 703.003084 538.072482 
L 712.579073 538.723394 
L 723.603673 539.24272 
L 736.839991 539.634707 
L 753.907795 539.905069 
L 779.062161 540.060139 
L 832.258077 540.113372 
L 852.218182 540.114923 
L 852.218182 540.114923 
" clip-path="url(#p8ccfcc2198)" style="fill: none; stroke: #d62728; stroke-width: 4; stroke-linecap: square"/>
   </g>
   <g id="line2d_5">
    <path d="M 40.581818 537.791485 
L 53.94448 536.916955 
L 66.29827 535.888591 
L 77.913263 534.700862 
L 89.043409 533.340448 
L 99.85287 531.795978 
L 110.496326 530.051728 
L 121.191807 528.074126 
L 132.214398 525.807751 
L 143.818443 523.191934 
L 156.783466 520.034898 
L 173.473272 515.724109 
L 203.549501 507.925479 
L 215.211055 505.163515 
L 225.029695 503.062075 
L 233.87233 501.393497 
L 242.074221 500.068797 
L 249.888843 499.030236 
L 257.384944 498.25618 
L 264.735278 497.720425 
L 271.939845 497.417316 
L 279.102897 497.337316 
L 286.319788 497.479491 
L 293.626687 497.846732 
L 301.103093 498.445982 
L 308.864895 499.29271 
L 317.056009 500.412578 
L 325.881982 501.846953 
L 335.798919 503.68962 
L 347.906589 506.176935 
L 390.411071 515.117371 
L 400.302416 516.841541 
L 409.208542 518.17139 
L 417.550476 519.194256 
L 425.521251 519.948955 
L 433.248861 520.458375 
L 440.834142 520.736309 
L 446.322701 520.746326 
L 446.331403 516.162574 
L 446.378958 519.639706 
L 446.395844 153.4486 
L 446.4 45.934154 
L 446.491327 520.797209 
L 446.497517 520.797207 
L 454.007207 520.68351 
L 461.582081 520.346307 
L 469.295261 519.779521 
L 477.230232 518.972234 
L 485.507656 517.904993 
L 494.320868 516.541886 
L 503.998292 514.815711 
L 515.265539 512.572267 
L 531.283009 509.131265 
L 553.303435 504.426603 
L 564.409815 502.292195 
L 573.826457 500.7054 
L 582.333134 499.494236 
L 590.291793 498.582809 
L 597.930754 497.930972 
L 605.309797 497.523379 
L 612.552483 497.345011 
L 619.744293 497.390306 
L 626.926016 497.657757 
L 634.198284 498.151963 
L 641.61415 498.880335 
L 649.230998 499.852626 
L 657.227572 501.100321 
L 665.67698 502.646335 
L 674.840175 504.551763 
L 685.186127 506.935501 
L 697.801479 510.081391 
L 719.3933 515.741622 
L 738.697041 520.704834 
L 751.932526 523.877818 
L 763.664255 526.463235 
L 774.667245 528.662521 
L 785.412505 530.584362 
L 796.104718 532.270528 
L 806.886428 533.746011 
L 817.987159 535.040248 
L 829.571656 536.165655 
L 841.8947 537.136217 
L 852.218182 537.791485 
L 852.218182 537.791485 
" clip-path="url(#p8ccfcc2198)" style="fill: none; stroke: #9467bd; stroke-width: 4; stroke-linecap: square"/>
   </g>
   <g id="text_1">
    <!-- $\Delta = 5, \rho(0) = 0.4$ -->
    <g transform="translate(374.440949 15.224524)scale(0.204 -0.204)">
     <defs>
      <path id="CMR17-1" d="M 2598 4435 
C 2547 4544 2522 4544 2470 4544 
C 2394 4544 2387 4531 2342 4441 
L 269 108 
C 262 96 237 38 237 32 
C 237 6 243 0 358 0 
L 4576 0 
C 4691 0 4698 6 4698 32 
C 4698 38 4672 96 4666 108 
L 2598 4435 
z
M 2310 4056 
L 4083 358 
L 531 358 
L 2310 4056 
z
" transform="scale(0.015625)"/>
      <path id="CMR17-3d" d="M 4115 2048 
C 4211 2048 4307 2048 4307 2156 
C 4307 2272 4198 2272 4090 2272 
L 512 2272 
C 403 2272 294 2272 294 2156 
C 294 2048 390 2048 486 2048 
L 4115 2048 
z
M 4090 927 
C 4198 927 4307 927 4307 1043 
C 4307 1152 4211 1152 4115 1152 
L 486 1152 
C 390 1152 294 1152 294 1043 
C 294 927 403 927 512 927 
L 4090 927 
z
" transform="scale(0.015625)"/>
      <path id="CMR17-35" d="M 730 3750 
C 794 3724 1056 3641 1325 3641 
C 1920 3641 2246 3961 2432 4140 
C 2432 4191 2432 4224 2394 4224 
C 2387 4224 2374 4224 2323 4198 
C 2099 4102 1837 4032 1517 4032 
C 1325 4032 1037 4055 723 4191 
C 653 4224 640 4224 634 4224 
C 602 4224 595 4217 595 4090 
L 595 2231 
C 595 2113 595 2080 659 2080 
C 691 2080 704 2093 736 2139 
C 941 2435 1222 2560 1542 2560 
C 1766 2560 2246 2415 2246 1293 
C 2246 1087 2246 716 2054 422 
C 1894 159 1645 25 1370 25 
C 947 25 518 319 403 812 
C 429 806 480 793 506 793 
C 589 793 749 838 749 1036 
C 749 1209 627 1280 506 1280 
C 358 1280 262 1190 262 1011 
C 262 454 704 -128 1382 -128 
C 2042 -128 2669 441 2669 1267 
C 2669 2054 2170 2662 1549 2662 
C 1222 2662 947 2540 730 2304 
L 730 3750 
z
" transform="scale(0.015625)"/>
      <path id="CMMI12-3b" d="M 1248 -26 
C 1248 345 1126 620 864 620 
C 659 620 557 454 557 313 
C 557 172 653 0 870 0 
C 954 0 1024 25 1082 83 
C 1094 96 1101 96 1107 96 
C 1120 96 1120 6 1120 -26 
C 1120 -233 1082 -642 710 -1051 
C 640 -1127 640 -1140 640 -1152 
C 640 -1184 672 -1216 704 -1216 
C 755 -1216 1248 -749 1248 -26 
z
" transform="scale(0.015625)"/>
      <path id="CMMI12-1a" d="M 198 -1085 
C 192 -1116 179 -1154 179 -1191 
C 179 -1287 256 -1351 352 -1351 
C 448 -1351 538 -1287 576 -1198 
C 602 -1141 781 -390 986 389 
C 1114 70 1350 -64 1600 -64 
C 2323 -64 3142 830 3142 1794 
C 3142 2477 2726 2816 2285 2816 
C 1722 2816 1037 2234 826 1385 
L 198 -1085 
z
M 1594 64 
C 1158 64 1050 568 1050 645 
C 1050 683 1210 1289 1229 1385 
C 1555 2656 2182 2687 2278 2687 
C 2566 2687 2726 2426 2726 2049 
C 2726 1724 2554 1091 2445 823 
C 2253 383 1920 64 1594 64 
z
" transform="scale(0.015625)"/>
      <path id="CMR17-28" d="M 1958 -1562 
C 1958 -1556 1958 -1543 1939 -1524 
C 1645 -1223 858 -403 858 1596 
C 858 3595 1632 4408 1946 4729 
C 1946 4735 1958 4748 1958 4767 
C 1958 4787 1939 4800 1914 4800 
C 1843 4800 1299 4325 986 3620 
C 666 2909 576 2218 576 1603 
C 576 1141 621 360 1005 -467 
C 1312 -1133 1837 -1600 1914 -1600 
C 1946 -1600 1958 -1588 1958 -1562 
z
" transform="scale(0.015625)"/>
      <path id="CMR17-30" d="M 2688 2038 
C 2688 2430 2682 3099 2413 3613 
C 2176 4063 1798 4224 1466 4224 
C 1158 4224 768 4082 525 3620 
C 269 3137 243 2539 243 2038 
C 243 1671 250 1112 448 623 
C 723 -39 1216 -128 1466 -128 
C 1760 -128 2208 -7 2470 604 
C 2662 1048 2688 1568 2688 2038 
z
M 1466 -26 
C 1056 -26 813 328 723 816 
C 653 1196 653 1749 653 2109 
C 653 2604 653 3015 736 3407 
C 858 3954 1216 4121 1466 4121 
C 1728 4121 2067 3947 2189 3420 
C 2272 3054 2278 2623 2278 2109 
C 2278 1691 2278 1176 2202 797 
C 2067 96 1690 -26 1466 -26 
z
" transform="scale(0.015625)"/>
      <path id="CMR17-29" d="M 1683 1596 
C 1683 2057 1638 2839 1254 3665 
C 947 4332 422 4800 346 4800 
C 326 4800 301 4793 301 4761 
C 301 4748 307 4742 314 4729 
C 621 4408 1402 3595 1402 1603 
C 1402 -396 627 -1210 314 -1530 
C 307 -1543 301 -1549 301 -1562 
C 301 -1594 326 -1600 346 -1600 
C 416 -1600 960 -1127 1274 -422 
C 1594 289 1683 981 1683 1596 
z
" transform="scale(0.015625)"/>
      <path id="CMMI12-3a" d="M 1178 307 
C 1178 492 1024 620 870 620 
C 685 620 557 467 557 313 
C 557 128 710 0 864 0 
C 1050 0 1178 153 1178 307 
z
" transform="scale(0.015625)"/>
      <path id="CMR17-34" d="M 2150 4147 
C 2150 4281 2144 4288 2029 4288 
L 128 1254 
L 128 1088 
L 1779 1088 
L 1779 460 
C 1779 230 1766 166 1318 166 
L 1197 166 
L 1197 0 
C 1402 12 1747 12 1965 12 
C 2182 12 2528 12 2733 0 
L 2733 166 
L 2611 166 
C 2163 166 2150 230 2150 460 
L 2150 1088 
L 2803 1088 
L 2803 1254 
L 2150 1254 
L 2150 4147 
z
M 1798 3723 
L 1798 1254 
L 256 1254 
L 1798 3723 
z
" transform="scale(0.015625)"/>
     </defs>
     <use xlink:href="#CMR17-1" transform="scale(0.996264)"/>
     <use xlink:href="#CMR17-3d" transform="translate(104.593599 0)scale(0.996264)"/>
     <use xlink:href="#CMR17-35" transform="translate(203.982396 0)scale(0.996264)"/>
     <use xlink:href="#CMMI12-3b" transform="translate(249.672873 0)scale(0.996264)"/>
     <use xlink:href="#CMMI12-1a" transform="translate(293.374455 0)scale(0.996264)"/>
     <use xlink:href="#CMR17-28" transform="translate(343.688828 0)scale(0.996264)"/>
     <use xlink:href="#CMR17-30" transform="translate(378.969596 0)scale(0.996264)"/>
     <use xlink:href="#CMR17-29" transform="translate(424.660073 0)scale(0.996264)"/>
     <use xlink:href="#CMR17-3d" transform="translate(487.614849 0)scale(0.996264)"/>
     <use xlink:href="#CMR17-30" transform="translate(587.003647 0)scale(0.996264)"/>
     <use xlink:href="#CMMI12-3a" transform="translate(632.694124 0)scale(0.996264)"/>
     <use xlink:href="#CMR17-34" transform="translate(659.791301 0)scale(0.996264)"/>
    </g>
   </g>
  </g>
 </g>
 <defs>
  <clipPath id="p8ccfcc2198">
   <rect x="0" y="21.224524" width="892.8" height="543.6"/>
  </clipPath>
 </defs>
</svg>
